<mxfile host="app.diagrams.net" agent="Mozilla/5.0 (Windows NT 10.0; Win64; x64) AppleWebKit/537.36 (KHTML, like Gecko) Chrome/128.0.0.0 Safari/537.36" version="24.7.7">
  <diagram name="Page-1" id="n802yypsnesiYVoC7Ksb">
    <mxGraphModel dx="1050" dy="581" grid="1" gridSize="10" guides="1" tooltips="1" connect="1" arrows="1" fold="1" page="1" pageScale="1" pageWidth="850" pageHeight="1100" math="0" shadow="0">
      <root>
        <mxCell id="0" />
        <mxCell id="1" parent="0" />
        <mxCell id="RpGXvxsP4eeredyBU_ju-20" style="edgeStyle=orthogonalEdgeStyle;rounded=0;orthogonalLoop=1;jettySize=auto;html=1;exitX=1;exitY=0.5;exitDx=0;exitDy=0;exitPerimeter=0;" edge="1" parent="1" source="RpGXvxsP4eeredyBU_ju-17">
          <mxGeometry relative="1" as="geometry">
            <mxPoint x="422.5" y="380" as="targetPoint" />
            <Array as="points">
              <mxPoint x="400.5" y="500" />
              <mxPoint x="522.5" y="500" />
            </Array>
          </mxGeometry>
        </mxCell>
        <mxCell id="RpGXvxsP4eeredyBU_ju-21" value="&lt;font style=&quot;font-size: 14px;&quot;&gt;Tidak&lt;/font&gt;" style="edgeLabel;html=1;align=center;verticalAlign=middle;resizable=0;points=[];" vertex="1" connectable="0" parent="RpGXvxsP4eeredyBU_ju-20">
          <mxGeometry x="-0.0163" relative="1" as="geometry">
            <mxPoint x="-70" y="44" as="offset" />
          </mxGeometry>
        </mxCell>
        <mxCell id="RpGXvxsP4eeredyBU_ju-1" value="&lt;font style=&quot;font-size: 22px;&quot;&gt;Algoritma Memasak Mie Instant&lt;/font&gt;" style="text;html=1;align=center;verticalAlign=middle;resizable=0;points=[];autosize=1;strokeColor=none;fillColor=none;" vertex="1" parent="1">
          <mxGeometry width="330" height="40" as="geometry" />
        </mxCell>
        <mxCell id="RpGXvxsP4eeredyBU_ju-10" value="" style="edgeStyle=orthogonalEdgeStyle;rounded=0;orthogonalLoop=1;jettySize=auto;html=1;" edge="1" parent="1" source="RpGXvxsP4eeredyBU_ju-2" target="RpGXvxsP4eeredyBU_ju-9">
          <mxGeometry relative="1" as="geometry" />
        </mxCell>
        <mxCell id="RpGXvxsP4eeredyBU_ju-2" value="&lt;font style=&quot;font-size: 14px;&quot;&gt;Mulai&lt;/font&gt;" style="strokeWidth=2;html=1;shape=mxgraph.flowchart.terminator;whiteSpace=wrap;" vertex="1" parent="1">
          <mxGeometry x="282.5" y="40" width="120" height="50" as="geometry" />
        </mxCell>
        <mxCell id="RpGXvxsP4eeredyBU_ju-12" value="" style="edgeStyle=orthogonalEdgeStyle;rounded=0;orthogonalLoop=1;jettySize=auto;html=1;" edge="1" parent="1" source="RpGXvxsP4eeredyBU_ju-9" target="RpGXvxsP4eeredyBU_ju-11">
          <mxGeometry relative="1" as="geometry" />
        </mxCell>
        <mxCell id="RpGXvxsP4eeredyBU_ju-9" value="&lt;font style=&quot;font-size: 14px;&quot;&gt;Siapkan air 400ml&lt;/font&gt;&lt;div style=&quot;font-size: 14px;&quot;&gt;&lt;font style=&quot;font-size: 14px;&quot;&gt;Alat masak (kompor, panci)&lt;/font&gt;&lt;/div&gt;" style="verticalLabelPosition=middle;verticalAlign=middle;html=1;shape=hexagon;perimeter=hexagonPerimeter2;arcSize=6;size=0.10204081632653061;labelPosition=center;align=center;" vertex="1" parent="1">
          <mxGeometry x="220" y="130" width="245" height="70" as="geometry" />
        </mxCell>
        <mxCell id="RpGXvxsP4eeredyBU_ju-14" value="" style="edgeStyle=orthogonalEdgeStyle;rounded=0;orthogonalLoop=1;jettySize=auto;html=1;" edge="1" parent="1" source="RpGXvxsP4eeredyBU_ju-11" target="RpGXvxsP4eeredyBU_ju-13">
          <mxGeometry relative="1" as="geometry" />
        </mxCell>
        <mxCell id="RpGXvxsP4eeredyBU_ju-11" value="&lt;font style=&quot;font-size: 14px;&quot;&gt;Nyalakan kompor&lt;/font&gt;" style="rounded=1;whiteSpace=wrap;html=1;absoluteArcSize=1;arcSize=14;strokeWidth=2;" vertex="1" parent="1">
          <mxGeometry x="267.5" y="240" width="150" height="60" as="geometry" />
        </mxCell>
        <mxCell id="RpGXvxsP4eeredyBU_ju-18" value="" style="edgeStyle=orthogonalEdgeStyle;rounded=0;orthogonalLoop=1;jettySize=auto;html=1;" edge="1" parent="1" source="RpGXvxsP4eeredyBU_ju-13" target="RpGXvxsP4eeredyBU_ju-17">
          <mxGeometry relative="1" as="geometry" />
        </mxCell>
        <mxCell id="RpGXvxsP4eeredyBU_ju-13" value="&lt;font style=&quot;font-size: 14px;&quot;&gt;Panaskan air hingga mendidih&lt;/font&gt;" style="rounded=1;whiteSpace=wrap;html=1;absoluteArcSize=1;arcSize=14;strokeWidth=2;" vertex="1" parent="1">
          <mxGeometry x="265" y="340" width="155" height="70" as="geometry" />
        </mxCell>
        <mxCell id="RpGXvxsP4eeredyBU_ju-33" value="" style="edgeStyle=orthogonalEdgeStyle;rounded=0;orthogonalLoop=1;jettySize=auto;html=1;" edge="1" parent="1" source="RpGXvxsP4eeredyBU_ju-17" target="RpGXvxsP4eeredyBU_ju-32">
          <mxGeometry relative="1" as="geometry" />
        </mxCell>
        <mxCell id="RpGXvxsP4eeredyBU_ju-17" value="&lt;font style=&quot;font-size: 14px;&quot;&gt;Air sudah&lt;/font&gt;&lt;div style=&quot;font-size: 14px;&quot;&gt;&lt;font style=&quot;font-size: 14px;&quot;&gt;mendidih?&lt;/font&gt;&lt;/div&gt;" style="strokeWidth=2;html=1;shape=mxgraph.flowchart.decision;whiteSpace=wrap;" vertex="1" parent="1">
          <mxGeometry x="285" y="450" width="115" height="110" as="geometry" />
        </mxCell>
        <mxCell id="RpGXvxsP4eeredyBU_ju-35" value="" style="edgeStyle=orthogonalEdgeStyle;rounded=0;orthogonalLoop=1;jettySize=auto;html=1;" edge="1" parent="1" source="RpGXvxsP4eeredyBU_ju-32" target="RpGXvxsP4eeredyBU_ju-34">
          <mxGeometry relative="1" as="geometry" />
        </mxCell>
        <mxCell id="RpGXvxsP4eeredyBU_ju-32" value="&lt;font style=&quot;font-size: 14px;&quot;&gt;Masukkan mie&lt;/font&gt;" style="shape=parallelogram;perimeter=parallelogramPerimeter;whiteSpace=wrap;html=1;fixedSize=1;strokeWidth=2;" vertex="1" parent="1">
          <mxGeometry x="272.5" y="610" width="140" height="70" as="geometry" />
        </mxCell>
        <mxCell id="RpGXvxsP4eeredyBU_ju-37" value="" style="edgeStyle=orthogonalEdgeStyle;rounded=0;orthogonalLoop=1;jettySize=auto;html=1;" edge="1" parent="1" source="RpGXvxsP4eeredyBU_ju-34">
          <mxGeometry relative="1" as="geometry">
            <mxPoint x="342.5" y="830" as="targetPoint" />
          </mxGeometry>
        </mxCell>
        <mxCell id="RpGXvxsP4eeredyBU_ju-34" value="&lt;font style=&quot;font-size: 14px;&quot;&gt;Rebus mie selama 3 menit&lt;/font&gt;" style="rounded=1;whiteSpace=wrap;html=1;strokeWidth=2;" vertex="1" parent="1">
          <mxGeometry x="272.5" y="720" width="140" height="70" as="geometry" />
        </mxCell>
        <mxCell id="RpGXvxsP4eeredyBU_ju-40" value="" style="edgeStyle=orthogonalEdgeStyle;rounded=0;orthogonalLoop=1;jettySize=auto;html=1;" edge="1" parent="1" source="RpGXvxsP4eeredyBU_ju-38" target="RpGXvxsP4eeredyBU_ju-39">
          <mxGeometry relative="1" as="geometry" />
        </mxCell>
        <mxCell id="RpGXvxsP4eeredyBU_ju-38" value="&lt;font style=&quot;font-size: 14px;&quot;&gt;Tiriskan mie dan tuang ke dalam piring&lt;/font&gt;" style="rounded=1;whiteSpace=wrap;html=1;strokeWidth=2;" vertex="1" parent="1">
          <mxGeometry x="272.5" y="830" width="140" height="70" as="geometry" />
        </mxCell>
        <mxCell id="RpGXvxsP4eeredyBU_ju-42" value="" style="edgeStyle=orthogonalEdgeStyle;rounded=0;orthogonalLoop=1;jettySize=auto;html=1;" edge="1" parent="1" source="RpGXvxsP4eeredyBU_ju-39" target="RpGXvxsP4eeredyBU_ju-41">
          <mxGeometry relative="1" as="geometry" />
        </mxCell>
        <mxCell id="RpGXvxsP4eeredyBU_ju-39" value="&lt;font style=&quot;font-size: 14px;&quot;&gt;Tuang bumbu lalu aduk hingga rata&lt;/font&gt;" style="rounded=1;whiteSpace=wrap;html=1;strokeWidth=2;" vertex="1" parent="1">
          <mxGeometry x="277.5" y="940" width="130" height="70" as="geometry" />
        </mxCell>
        <mxCell id="RpGXvxsP4eeredyBU_ju-41" value="&lt;font style=&quot;font-size: 14px;&quot;&gt;Selesai&lt;/font&gt;" style="strokeWidth=2;html=1;shape=mxgraph.flowchart.terminator;whiteSpace=wrap;" vertex="1" parent="1">
          <mxGeometry x="450" y="950" width="120" height="50" as="geometry" />
        </mxCell>
      </root>
    </mxGraphModel>
  </diagram>
</mxfile>
